<svg width="172" height="162" viewBox="0 0 172 162" fill="none" xmlns="http://www.w3.org/2000/svg">
<g filter="url(#filter0_d_178_278)">
<path d="M166 74.3827C166 115.122 133.529 150 86.499 150C39.4686 150 6 116.974 6 76.2346C6 35.495 39.4686 0 86.499 0C133.529 0 166 33.6432 166 74.3827Z" fill="#242222"/>
<path d="M49.1331 128.394V127.193L50.283 126.973V119.158L49.1331 118.938V117.73H52.2751H53.425V118.938L52.2751 119.158V126.863H55.4172V119.158L54.26 118.938V117.73H58.552V118.938L57.4021 119.158V126.863H60.5149V119.158L59.365 118.938V117.73H60.5149H62.4998H63.657V118.938L62.4998 119.158V126.973L63.657 127.193V128.394H49.1331ZM63.7668 128.394V127.193L64.5359 127.083L68.0002 117.73H69.9851L73.4202 127.083L74.1819 127.193V128.394H70.6736V127.193L71.428 127.054L70.908 125.486H67.0481L66.5281 127.054L67.2751 127.193V128.394H63.7668ZM67.5388 123.985H70.4172L69.1062 120.191L69.0037 119.883H68.9597L68.8499 120.206L67.5388 123.985ZM74.9729 128.394V127.193L76.1228 126.973V119.158L74.9729 118.938V117.73H76.1228H79.6824C80.908 117.73 81.865 117.974 82.5535 118.462C83.2419 118.946 83.5862 119.673 83.5862 120.645C83.5862 121.133 83.4495 121.57 83.176 121.956C82.9075 122.342 82.5266 122.63 82.0334 122.82C82.4583 122.913 82.8147 123.079 83.1028 123.318C83.3909 123.558 83.6082 123.848 83.7546 124.19C83.906 124.532 83.9817 124.905 83.9817 125.311C83.9817 126.321 83.6472 127.088 82.9783 127.61C82.3142 128.133 81.3816 128.394 80.1804 128.394H74.9729ZM78.115 126.863H80.1804C80.7664 126.863 81.2131 126.731 81.5208 126.468C81.8333 126.204 81.9895 125.818 81.9895 125.311C81.9895 124.949 81.9309 124.644 81.8137 124.395C81.7014 124.141 81.5232 123.948 81.2791 123.816C81.0398 123.685 80.7322 123.619 80.3562 123.619H78.115V126.863ZM78.115 122.212H79.8215C80.3831 122.212 80.8176 122.088 81.1252 121.839C81.4377 121.59 81.594 121.233 81.594 120.77C81.594 120.257 81.4329 119.878 81.1106 119.634C80.7883 119.39 80.3123 119.268 79.6824 119.268H78.115V122.212ZM84.8752 128.394V127.193L86.0251 126.973V119.158L84.8752 118.938V117.73H93.071V120.542H91.533L91.4231 119.261H88.0173V122.11H91.6941V123.655H88.0173V126.871H91.6135L91.7234 125.56H93.2468V128.394H84.8752ZM94.4553 128.394V127.193L95.6052 126.973V119.158L94.4553 118.938V117.73H95.6052H99.4944C100.3 117.73 100.991 117.872 101.567 118.155C102.148 118.433 102.595 118.826 102.907 119.334C103.22 119.837 103.376 120.423 103.376 121.092C103.376 121.766 103.22 122.354 102.907 122.857C102.595 123.355 102.148 123.743 101.567 124.021C100.991 124.3 100.3 124.439 99.4944 124.439H97.5974V126.973L98.7473 127.193V128.394H94.4553ZM97.5974 122.901H99.4944C100.119 122.901 100.591 122.732 100.908 122.396C101.225 122.059 101.384 121.629 101.384 121.106C101.384 120.579 101.225 120.142 100.908 119.795C100.591 119.444 100.119 119.268 99.4944 119.268H97.5974V122.901ZM104.16 128.394V127.193L105.302 126.973V119.158L104.16 118.938V117.73H105.302H108.21L111.228 125.303H111.272L114.194 117.73H118.266V118.938L117.116 119.158V126.973L118.266 127.193V128.394H113.974V127.193L115.183 126.973V124.71L115.212 119.971L115.176 119.964L111.924 128.196H110.451L107.119 120.015L107.075 120.022L107.192 124.534V126.973L108.452 127.193V128.394H104.16ZM118.479 128.394V127.193L119.248 127.083L122.712 117.73H124.697L128.132 127.083L128.894 127.193V128.394H125.385V127.193L126.14 127.054L125.62 125.486H121.76L121.24 127.054L121.987 127.193V128.394H118.479ZM122.251 123.985H125.129L123.818 120.191L123.716 119.883H123.672L123.562 120.206L122.251 123.985Z" fill="#FFFCFC"/>
<path d="M61.939 138.346V137.145L63.0815 136.925V131.85L61.939 131.63V130.421H68.7798V133.051H67.5273L67.4321 131.967H65.0737V136.925L66.2236 137.145V138.346H61.939ZM69.8198 141.393V140.185L70.8745 139.965V131.85L69.7173 131.63V130.421H72.6836L72.7935 131.352C73.0327 131.005 73.3232 130.739 73.665 130.553C74.0068 130.368 74.4121 130.275 74.8809 130.275C75.5205 130.275 76.0674 130.451 76.5215 130.802C76.9805 131.149 77.332 131.637 77.5762 132.267C77.8203 132.897 77.9424 133.629 77.9424 134.464V134.618C77.9424 135.395 77.8203 136.076 77.5762 136.662C77.332 137.243 76.9805 137.694 76.5215 138.017C76.0674 138.339 75.5181 138.5 74.8735 138.5C74.4341 138.5 74.0483 138.422 73.7163 138.266C73.3843 138.109 73.0986 137.88 72.8594 137.577V139.965L73.9434 140.185V141.393H69.8198ZM74.2729 136.969C74.8491 136.969 75.2715 136.757 75.54 136.332C75.8086 135.907 75.9429 135.336 75.9429 134.618V134.464C75.9429 133.942 75.8818 133.485 75.7598 133.095C75.6426 132.699 75.4595 132.392 75.2104 132.172C74.9614 131.947 74.644 131.835 74.2583 131.835C73.9409 131.835 73.6626 131.908 73.4233 132.055C73.189 132.196 73.001 132.396 72.8594 132.655V136.208C73.001 136.452 73.189 136.64 73.4233 136.771C73.6626 136.903 73.9458 136.969 74.2729 136.969ZM79.041 138.346V137.145L80.1909 136.925V131.85L79.041 131.63V130.421H82.1831H83.2451V131.63L82.1831 131.85V135.402L82.2271 135.409L84.9956 130.421H86.9878H88.1377V131.63L86.9878 131.85V136.925L88.1377 137.145V138.346H83.9336V137.145L84.9956 136.925V133.358L84.9517 133.351L82.1831 138.346H79.041ZM89.3022 138.346L89.2876 136.757L89.5366 136.75C89.8638 136.75 90.1152 136.659 90.291 136.479C90.4668 136.298 90.5864 135.993 90.6499 135.563C90.7183 135.133 90.7524 134.545 90.7524 133.798V131.85L89.5952 131.63V130.421H96.8022H97.9521V131.63L96.8022 131.85V136.925L97.9521 137.145V138.346H93.6602V137.145L94.8174 136.925V131.967H92.7446V133.798C92.7446 135.36 92.5103 136.51 92.0415 137.248C91.5776 137.98 90.7842 138.346 89.6611 138.346H89.3022ZM103.907 133.014C104.952 133.014 105.767 133.253 106.353 133.732C106.944 134.21 107.239 134.848 107.239 135.644C107.239 136.454 106.944 137.108 106.353 137.606C105.762 138.1 104.947 138.346 103.907 138.346H99.168V137.145L100.325 136.925V131.85L99.168 131.63V130.421H103.467V131.63L102.317 131.85V133.014H103.907ZM103.907 136.815C104.361 136.815 104.698 136.71 104.917 136.5C105.142 136.286 105.254 136.007 105.254 135.666C105.254 135.319 105.142 135.033 104.917 134.809C104.698 134.584 104.361 134.472 103.907 134.472H102.317V136.815H103.907Z" fill="#FFFCFC"/>
<g filter="url(#filter1_f_178_278)">
<path d="M45.2938 32.134C66.0088 10.3095 103.777 10.3095 124.492 32.134C143.176 51.8188 143.176 80.3298 124.492 100.015C103.777 121.839 66.0088 121.839 45.2938 100.015C26.6096 80.3298 26.6096 51.8188 45.2938 32.134Z" fill="#352F2F" fill-opacity="0.95"/>
</g>
<path d="M118.432 70.6789C118.432 87.5543 103.688 101.235 85.501 101.235C67.3135 101.235 52.5696 87.5543 52.5696 70.6789C52.5696 53.8036 67.3135 41.0493 85.501 41.0493C103.688 41.0493 118.432 53.8036 118.432 70.6789Z" fill="#D72C2C"/>
<path d="M117.932 70.6789C117.932 87.2436 103.448 100.735 85.501 100.735C67.5537 100.735 53.0696 87.2436 53.0696 70.6789C53.0696 54.1334 67.5327 41.5493 85.501 41.5493C103.469 41.5493 117.932 54.1334 117.932 70.6789Z" stroke="white" stroke-opacity="0.9"/>
<ellipse cx="86.0364" cy="70.9359" rx="26.5058" ry="25.1634" fill="#D72C2C"/>
<path d="M112.042 70.9359C112.042 84.5329 100.424 95.5993 86.0364 95.5993C71.649 95.5993 60.0306 84.5329 60.0306 70.9359C60.0306 57.3388 71.649 46.2725 86.0364 46.2725C100.424 46.2725 112.042 57.3388 112.042 70.9359Z" stroke="white" stroke-opacity="0.9"/>
<path d="M86.3035 101.809C84.1892 101.815 82.3332 103.443 80.6486 101.809C69.4517 90.9432 67.2058 46.7088 67.2058 46.7088L104.655 46.5912C104.655 46.5912 103.373 90.9285 92.291 101.808C90.6376 103.432 88.4026 101.802 86.3035 101.809Z" fill="#F8F02F"/>
<path d="M86.3018 101.309C85.7117 101.31 85.1523 101.425 84.6402 101.557C84.4275 101.612 84.2321 101.666 84.0451 101.719C83.7573 101.799 83.4894 101.875 83.2089 101.935C82.7667 102.031 82.3833 102.068 82.0311 102.006C81.6907 101.947 81.3492 101.792 80.9968 101.45C78.2924 98.8254 76.0824 94.1271 74.3015 88.4655C72.5267 82.8236 71.2009 76.3026 70.2223 70.1063C69.244 63.9123 68.6146 58.0553 68.2297 53.7459C68.0373 51.5915 67.9061 49.8248 67.8231 48.5971C67.7827 48.0008 67.7537 47.5317 67.7346 47.2072L104.138 47.0929C104.126 47.4184 104.107 47.8915 104.079 48.4945C104.023 49.725 103.929 51.4958 103.783 53.655C103.49 57.9742 102.985 63.8443 102.134 70.0519C101.282 76.2618 100.087 82.7964 98.4187 88.4491C96.744 94.1224 94.6146 98.8265 91.9407 101.452C91.294 102.087 90.5371 102.118 89.5615 101.924C89.2447 101.862 88.9364 101.782 88.6111 101.699C88.4179 101.649 88.2186 101.598 88.0079 101.548C87.4668 101.419 86.8872 101.307 86.3018 101.309Z" stroke="white" stroke-opacity="0.9"/>
<mask id="path-11-inside-1_178_278" fill="white">
<path d="M86.1015 29.0332C87.8271 29.0216 89.236 30.4111 89.2485 32.1366L89.7594 103.006C89.7719 104.732 88.3831 106.14 86.6575 106.152C84.9319 106.163 83.523 104.774 83.5105 103.048L82.9996 32.1786C82.9872 30.4531 84.3759 29.0448 86.1015 29.0332Z"/>
</mask>
<path d="M86.1015 29.0332C87.8271 29.0216 89.236 30.4111 89.2485 32.1366L89.7594 103.006C89.7719 104.732 88.3831 106.14 86.6575 106.152C84.9319 106.163 83.523 104.774 83.5105 103.048L82.9996 32.1786C82.9872 30.4531 84.3759 29.0448 86.1015 29.0332Z" fill="#F8EF2F"/>
<path d="M89.226 29.0122L89.7819 106.131L89.226 29.0122ZM83.5331 106.173L82.9771 29.0542L83.5331 106.173ZM82.9924 31.1787C82.9799 29.4531 84.3687 28.0448 86.0943 28.0332C87.8199 28.0216 89.2288 29.4111 89.2413 31.1367L89.2485 32.1366C89.24 30.9633 87.8343 30.0216 86.1087 30.0332C84.3831 30.0448 82.9911 31.0053 82.9996 32.1786L82.9924 31.1787ZM89.7819 106.131L83.5331 106.173L89.7819 106.131Z" fill="white" fill-opacity="0.9" mask="url(#path-11-inside-1_178_278)"/>
<ellipse cx="86.3035" cy="46.65" rx="18.6279" ry="5.45171" fill="#F8EF2F"/>
<ellipse cx="86.3036" cy="45.3672" rx="15.9667" ry="4.16896" fill="#F8EF2F"/>
<path d="M101.77 45.3672C101.77 45.6675 101.528 46.0858 100.753 46.5645C100.005 47.0261 98.89 47.4599 97.4675 47.8313C94.6301 48.5722 90.6828 49.0362 86.3036 49.0362C81.9245 49.0362 77.9772 48.5722 75.1398 47.8313C73.7173 47.4599 72.6021 47.0261 71.8543 46.5645C71.0789 46.0858 70.8369 45.6675 70.8369 45.3672C70.8369 45.0669 71.0789 44.6486 71.8543 44.1699C72.6021 43.7083 73.7173 43.2745 75.1398 42.9031C77.9772 42.1622 81.9245 41.6982 86.3036 41.6982C90.6828 41.6982 94.6301 42.1622 97.4675 42.9031C98.89 43.2745 100.005 43.7083 100.753 44.1699C101.528 44.6486 101.77 45.0669 101.77 45.3672Z" stroke="white" stroke-opacity="0.9"/>
<path d="M82.9773 32.3386C82.9773 30.5015 84.4666 29.0122 86.3037 29.0122C88.1408 29.0122 89.6301 30.5015 89.6301 32.3386V45.0467H82.9773V32.3386Z" fill="#E5E180"/>
<g filter="url(#filter2_f_178_278)">
<ellipse cx="46.582" cy="74.9998" rx="2.66112" ry="2.16049" fill="#D72C2C"/>
</g>
<g filter="url(#filter3_f_178_278)">
<ellipse cx="49.9086" cy="55.247" rx="3.3264" ry="2.77778" fill="#D72C2C"/>
</g>
<g filter="url(#filter4_f_178_278)">
<ellipse cx="61.8835" cy="44.7533" rx="2.66112" ry="2.16049" fill="#D72C2C"/>
</g>
<g filter="url(#filter5_f_178_278)">
<ellipse cx="2.634" cy="2.18579" rx="2.634" ry="2.18579" transform="matrix(0.933735 0.357964 -0.406793 0.91352 115.554 50)" fill="#D72C2C"/>
</g>
<g filter="url(#filter6_f_178_278)">
<ellipse cx="3.2925" cy="2.81031" rx="3.2925" ry="2.81031" transform="matrix(0.933735 0.357964 -0.406793 0.91352 122.049 69.1357)" fill="#D72C2C"/>
</g>
<g filter="url(#filter7_f_178_278)">
<ellipse cx="2.634" cy="2.18579" rx="2.634" ry="2.18579" transform="matrix(0.933735 0.357964 -0.406793 0.91352 97.5911 35.8022)" fill="#D72C2C"/>
</g>
<g filter="url(#filter8_f_178_278)">
<ellipse cx="2.634" cy="2.18579" rx="2.634" ry="2.18579" transform="matrix(0.933735 0.357964 -0.406793 0.91352 104.244 96.2964)" fill="#D72C2C"/>
</g>
<path d="M68.5363 56.4814C68.5363 56.4814 71.8202 58.6544 74.4177 59.2592C78.5756 60.2274 80.5113 61.4197 83.8377 61.4197H88.162L80.5113 63.2716C80.5113 63.2716 78.54 64.3628 74.4177 63.2716C72.515 62.7679 69.7607 61.4197 69.7607 61.4197C69.7607 61.4197 68.5363 60.8024 70.8647 63.2716C73.1932 65.7407 70.8319 64.5215 73.5259 64.8148C75.3321 65.0114 77.8502 65.4321 77.8502 65.4321C77.8502 65.4321 77.5237 65.8854 75.1891 66.6666C72.4218 67.5926 72.5511 68.2744 70.8647 67.2839C70.2543 66.9254 69.9895 66.831 69.8966 66.8462C69.6867 66.8805 70.3538 67.4741 69.8966 66.8462C69.8592 66.7948 69.8143 66.7353 69.7607 66.6666C68.9282 65.5988 69.5171 65.4621 69.2015 63.8889C68.5291 60.5363 68.5363 56.4814 68.5363 56.4814Z" fill="black"/>
<path d="M79.0748 87.3456C76.4773 86.7408 73.1934 84.5679 73.1934 84.5679C73.1934 84.5679 73.526 87.037 74.4178 89.5061C74.4178 89.5061 77.1721 90.8543 79.0748 91.358C83.1971 92.4493 85.1684 91.358 85.1684 91.358L92.8191 89.5061H88.4948C85.1684 89.5061 83.2327 88.3138 79.0748 87.3456Z" fill="black"/>
<path d="M104.088 48.7656C104.088 48.7656 101.159 50.5204 98.7862 51.1025C94.9879 52.0343 93.257 53.0046 90.1792 53.1898L86.1779 53.4304L93.3506 54.3443C93.3506 54.3443 95.2298 55.0241 98.989 54.0052C100.724 53.5349 103.204 52.4063 103.204 52.4063C103.204 52.4063 104.306 51.8916 102.276 53.8074C100.247 55.7233 102.37 54.7099 99.8922 55.072C98.2308 55.3147 95.9221 55.7592 95.9221 55.7592C95.9221 55.7592 96.2471 56.069 98.4468 56.5042C101.054 57.0201 100.969 57.5205 102.479 56.7101C102.827 56.5234 103.053 56.4149 103.193 56.3556C103.627 56.173 103.257 56.4569 103.193 56.3556C103.166 56.3119 103.195 56.1967 103.371 55.9416C104.005 55.0182 103.634 55.3172 103.847 54.1614C104.299 51.6986 104.088 48.7656 104.088 48.7656Z" fill="black"/>
<path d="M102.288 71.7573C102.288 71.7573 99.0635 72.9861 96.616 73.1563C92.6981 73.4286 90.8054 74.0892 87.7429 73.7495L83.7616 73.3079L90.6336 75.4222C90.6336 75.4222 92.3473 76.409 96.2439 76.0445C98.0424 75.8762 100.703 75.187 100.703 75.187C100.703 75.187 101.888 74.8677 99.515 76.4073C97.1422 77.9469 99.4293 77.3104 96.9218 77.2464C95.2406 77.2035 92.8833 77.2491 92.8833 77.2491C92.8833 77.2491 93.1418 77.6088 95.2188 78.4096C97.6807 79.3587 97.4984 79.8363 99.1429 79.2955C99.5218 79.1709 99.7648 79.1025 99.9149 79.068C100.377 78.9619 99.9576 79.1784 99.9149 79.068C99.8964 79.0204 99.948 78.9121 100.17 78.691C100.976 77.8906 100.553 78.1217 100.989 77.0215C101.919 74.6768 102.288 71.7573 102.288 71.7573Z" fill="black"/>
</g>
<defs>
<filter id="filter0_d_178_278" x="0" y="0" width="172" height="162" filterUnits="userSpaceOnUse" color-interpolation-filters="sRGB">
<feFlood flood-opacity="0" result="BackgroundImageFix"/>
<feColorMatrix in="SourceAlpha" type="matrix" values="0 0 0 0 0 0 0 0 0 0 0 0 0 0 0 0 0 0 127 0" result="hardAlpha"/>
<feOffset dy="6"/>
<feGaussianBlur stdDeviation="3"/>
<feComposite in2="hardAlpha" operator="out"/>
<feColorMatrix type="matrix" values="0 0 0 0 0 0 0 0 0 0 0 0 0 0 0 0 0 0 0.35 0"/>
<feBlend mode="normal" in2="BackgroundImageFix" result="effect1_dropShadow_178_278"/>
<feBlend mode="normal" in="SourceGraphic" in2="effect1_dropShadow_178_278" result="shape"/>
</filter>
<filter id="filter1_f_178_278" x="21.2806" y="5.76562" width="127.224" height="120.617" filterUnits="userSpaceOnUse" color-interpolation-filters="sRGB">
<feFlood flood-opacity="0" result="BackgroundImageFix"/>
<feBlend mode="normal" in="SourceGraphic" in2="BackgroundImageFix" result="shape"/>
<feGaussianBlur stdDeviation="5" result="effect1_foregroundBlur_178_278"/>
</filter>
<filter id="filter2_f_178_278" x="42.9209" y="71.8394" width="7.32227" height="6.3208" filterUnits="userSpaceOnUse" color-interpolation-filters="sRGB">
<feFlood flood-opacity="0" result="BackgroundImageFix"/>
<feBlend mode="normal" in="SourceGraphic" in2="BackgroundImageFix" result="shape"/>
<feGaussianBlur stdDeviation="0.5" result="effect1_foregroundBlur_178_278"/>
</filter>
<filter id="filter3_f_178_278" x="45.5822" y="51.4692" width="8.65283" height="7.55566" filterUnits="userSpaceOnUse" color-interpolation-filters="sRGB">
<feFlood flood-opacity="0" result="BackgroundImageFix"/>
<feBlend mode="normal" in="SourceGraphic" in2="BackgroundImageFix" result="shape"/>
<feGaussianBlur stdDeviation="0.5" result="effect1_foregroundBlur_178_278"/>
</filter>
<filter id="filter4_f_178_278" x="58.2224" y="41.5928" width="7.32227" height="6.3208" filterUnits="userSpaceOnUse" color-interpolation-filters="sRGB">
<feFlood flood-opacity="0" result="BackgroundImageFix"/>
<feBlend mode="normal" in="SourceGraphic" in2="BackgroundImageFix" result="shape"/>
<feGaussianBlur stdDeviation="0.5" result="effect1_foregroundBlur_178_278"/>
</filter>
<filter id="filter5_f_178_278" x="113.508" y="49.731" width="7.23193" height="6.41748" filterUnits="userSpaceOnUse" color-interpolation-filters="sRGB">
<feFlood flood-opacity="0" result="BackgroundImageFix"/>
<feBlend mode="normal" in="SourceGraphic" in2="BackgroundImageFix" result="shape"/>
<feGaussianBlur stdDeviation="0.5" result="effect1_foregroundBlur_178_278"/>
</filter>
<filter id="filter6_f_178_278" x="118.7" y="68.0562" width="10.5618" height="9.65088" filterUnits="userSpaceOnUse" color-interpolation-filters="sRGB">
<feFlood flood-opacity="0" result="BackgroundImageFix"/>
<feBlend mode="normal" in="SourceGraphic" in2="BackgroundImageFix" result="shape"/>
<feGaussianBlur stdDeviation="1" result="effect1_foregroundBlur_178_278"/>
</filter>
<filter id="filter7_f_178_278" x="94.5454" y="34.5332" width="9.23193" height="8.41748" filterUnits="userSpaceOnUse" color-interpolation-filters="sRGB">
<feFlood flood-opacity="0" result="BackgroundImageFix"/>
<feBlend mode="normal" in="SourceGraphic" in2="BackgroundImageFix" result="shape"/>
<feGaussianBlur stdDeviation="1" result="effect1_foregroundBlur_178_278"/>
</filter>
<filter id="filter8_f_178_278" x="101.198" y="95.0273" width="9.23193" height="8.41748" filterUnits="userSpaceOnUse" color-interpolation-filters="sRGB">
<feFlood flood-opacity="0" result="BackgroundImageFix"/>
<feBlend mode="normal" in="SourceGraphic" in2="BackgroundImageFix" result="shape"/>
<feGaussianBlur stdDeviation="1" result="effect1_foregroundBlur_178_278"/>
</filter>
</defs>
</svg>
